<svg xmlns="http://www.w3.org/2000/svg" xmlns:xlink="http://www.w3.org/1999/xlink" width="357.021" height="376.198" viewBox="0 0 357.021 376.198"><defs><style>.a{fill:url(#a);}.b{fill:url(#b);}.c{fill:url(#c);}.d{fill:url(#d);}.e{fill:url(#e);}.f{fill:url(#f);}.g{fill:url(#g);}.h{fill:url(#h);}.i{fill:url(#i);}</style><linearGradient id="a" y1="0.5" x2="1" y2="0.5" gradientUnits="objectBoundingBox"><stop offset="0" stop-color="#ec1e2d"/><stop offset="1" stop-color="#703894"/></linearGradient><linearGradient id="b" x1="0" y1="0.5" x2="1" y2="0.5" xlink:href="#a"/><linearGradient id="c" x1="-0.003" y1="0.501" x2="0.996" y2="0.501" xlink:href="#a"/><linearGradient id="d" x1="0" y1="0.5" x2="1.002" y2="0.5" xlink:href="#a"/><linearGradient id="e" x1="0" y1="0.5" x2="1" y2="0.5" xlink:href="#a"/><linearGradient id="f" x1="0.001" y1="0.499" x2="1" y2="0.499" xlink:href="#a"/><linearGradient id="g" x1="0.003" y1="0.5" x2="1" y2="0.5" xlink:href="#a"/><linearGradient id="h" x1="0" y1="0.5" x2="1.004" y2="0.5" xlink:href="#a"/><linearGradient id="i" x1="0.005" y1="0.5" x2="1.005" y2="0.5" xlink:href="#a"/></defs><g transform="translate(-183.79 -164.035)"><g transform="translate(183.79 164.035)"><path class="a" d="M540.085,508.714,473.4,443.136a2.107,2.107,0,0,0-3.582,1.551l.421,21.336-32.847-50.735a2.126,2.126,0,0,0-3.179-.4l-56.749,51.846c.977-13.809,1.915-27.752,2.566-41.5l42.27-24.9a2.081,2.081,0,0,0,.4-3.313l-40.872-39.148a2.107,2.107,0,0,0-3.543,1.475c-.479,21.068-1.283,42.365-2.337,63.338l-22.236,13.043V382.058l22.006-28.193a2.068,2.068,0,0,0,.326-.728.248.248,0,0,0,0-.115,1.8,1.8,0,0,0,0-.479,2.2,2.2,0,0,0-.249-.919.4.4,0,0,1,0-.115V351.3l-.134-.134-47.211-51.214a2.049,2.049,0,0,0-.517-.441l-.287-.134-65.234-26.239L260.8,243.183a2.088,2.088,0,0,0-3.716-1.245l-14.613,17.946,1.915-36.677a2.126,2.126,0,0,0-.613-1.59l-25.109-25.588-.268-.306-2.337-2.317-28.135-28.729a2.107,2.107,0,0,0-3.62,1.456v93.216a2.107,2.107,0,0,0,3.984.939l16.72-34.053,3.486,32.789a2.088,2.088,0,0,0,1.456,1.781,2.126,2.126,0,0,0,2.2-.613l27.714-31.1-1.915,36.39-26.2,32.138-23.96-19.153a2.088,2.088,0,0,0-2.2-.249,2.126,2.126,0,0,0-1.207,1.915V331.84a2.165,2.165,0,0,0,.268,1.015l21.355,40.22L184.939,394.3a2.049,2.049,0,0,0-.632,1.494v42.576a2.088,2.088,0,0,0,1.111,1.915l21.068,11.338L184.4,473.665a2.049,2.049,0,0,0-.613,1.456v35.126a2.107,2.107,0,0,0,2.107,2.088h50.62a2.107,2.107,0,0,0,1.3-3.62l-29-24.171,29-21.317,21.547,47.881a2.107,2.107,0,0,0,1.781,1.226h.134a2.145,2.145,0,0,0,1.781-.977l21.6-34.034L304.7,497.337a2.068,2.068,0,0,0,2.279.46,2.107,2.107,0,0,0,1.3-1.915V446.736h21.068l.1,35.317-8.082,8.216a2.107,2.107,0,0,0-.421,2.375l8.772,18.482a2.126,2.126,0,0,0,1.915,1.207h.479a2.069,2.069,0,0,0,1.628-2.049V483.816l18.138-18.444v44.874a2.126,2.126,0,0,0,1.188,1.915,2.088,2.088,0,0,0,2.2-.23l30.529-23.4v21.719a2.088,2.088,0,0,0,2.107,2.088H538.706a2.088,2.088,0,0,0,1.456-3.6Zm-157.7-144.449L417.854,398.2l-37.5,22.006c.843-18.54,1.551-37.328,2.03-55.926Zm-193.8-113.977V171.265l11.951,12.219,3.716,34.877ZM205.26,188.5l7.833,7.853,1.283,1.283-6.7,13.656Zm6.933,65.31-3.7-34.685,9-18.31,21.872,22.351ZM473.588,495.02a2.069,2.069,0,0,0,1.341-1.915l-.249-12.334,13.062,20.187-31.18.843ZM316.058,299.242h-52.21l-1.13-21.566Zm-59.086-50.448,1.226,22.5-14.728-5.937Zm-16.28,19.976,17.754,7.163,1.4,25.53a2.126,2.126,0,0,0,2.107,1.915h56.711l-35.279,19.153a2.088,2.088,0,0,0-1.092,1.915V371.83h-22.37v-34.8a2.088,2.088,0,0,0-.785-1.628l-44.051-35.241Zm-52.018,15.648,20.493,16.375-20.493,25.147Zm0,112.157,19.478-19.689,9.251,17.391-28.729,32.176Zm33.115-2.988-10.534-19.823,22.236-22.485v78.526H191.164l30.242-33.881a2.088,2.088,0,0,0,.287-2.337Zm14.058,54.872H250.92L239.6,456.772Zm44.108,25.779v2.681l-18.367,28.9-20.3-45.123,17.237-12.641a2.183,2.183,0,0,0,.843-1.7v-52.1h20.589Zm45.468,17.946,4.08-4.156v12.832Zm62.38-10.036a2.049,2.049,0,0,0-.728.134h-.115a1.243,1.243,0,0,0-.326.172l-30.529,23.4V460.181a2.107,2.107,0,0,0-1.3-1.915,2.069,2.069,0,0,0-2.279.479L333.774,477.9l-.192-33.268a2.088,2.088,0,0,0-2.107-2.088h-25.32a2.088,2.088,0,0,0-2.088,2.088v46.158L286.39,473.109V389.968a2.088,2.088,0,0,0-2.107-2.088H257.24a2.088,2.088,0,0,0-2.088,2.088v54.3H232.495a2.107,2.107,0,0,0-1.762.958,2.145,2.145,0,0,0-.153,1.915l5.458,12.085-31.832,23.328a2.145,2.145,0,0,0-.843,1.609,2.088,2.088,0,0,0,.747,1.7l26.6,22.179H188.023V476l23.519-23.539a2.107,2.107,0,0,0-.46-3.352L188.6,437.045v-3.026h50.256a2.126,2.126,0,0,0,2.107-2.107V342.776a2.107,2.107,0,0,0-3.6-1.475l-28.269,28.576-20.11-37.788,23.385-28.729,43.361,34.628V373.8a2.087,2.087,0,0,0,2.088,2.107h26.469a2.107,2.107,0,0,0,2.107-2.107V325.615l40.048-21.642,40.489,44.051-60.158-20.455a2.088,2.088,0,0,0-2.758,1.915v94.958a2.107,2.107,0,0,0,2.088,2.107h27.1a2.107,2.107,0,0,0,2.107-2.107V377.366l30.453-17.582-15.8,20.263a2.088,2.088,0,0,0-.441,1.3v58.109a2.109,2.109,0,0,0,3.16,1.915l22.983-13.5c-.766,14.384-1.7,29.15-2.777,43.917a2.1,2.1,0,0,0,3.524,1.7l41.887-38.305,32.349,46.522Zm-21.8-130.1L330.422,372.5a3.256,3.256,0,0,0-1.628,2.8v44.989H308.263V332.51Zm23.9,156.093V487.933l34.034,20.206Zm42.251,0-36.792-21.853,59.373-.479a2.107,2.107,0,0,0,1.724-3.294l-34.953-50.256,13.79-12.583,35.126,54.317.345,17.659L443.959,502.2a2.107,2.107,0,0,0-1.283,2.375,2.145,2.145,0,0,0,2.03,1.666l46.886-1.264a2.106,2.106,0,0,0,1.781-1.13,2.068,2.068,0,0,0-.1-2.107l-18.77-29.016-.44-22.983,59.373,58.4Z" transform="translate(-183.79 -164.035)"/><path class="b" d="M200.772,369.292a1.628,1.628,0,0,1-1.7-1.7V361.5h-8.848a1.685,1.685,0,1,1,0-3.352h8.849V352.4a1.743,1.743,0,0,1,3.467,0v15.111a1.647,1.647,0,0,1-1.762,1.781Zm-14.307,0a1.628,1.628,0,0,1-1.7-1.7V352.476a1.7,1.7,0,1,1,3.409,0v15.111a1.647,1.647,0,0,1-1.7,1.7Z" transform="translate(-182.903 6.892)"/><path class="c" d="M225.192,369.156H213.24a2.394,2.394,0,0,1-2.586-2.6V352.494a1.724,1.724,0,1,1,3.447,0v13.292h10.323V352.494a1.743,1.743,0,0,1,3.467,0v14.039a2.432,2.432,0,0,1-2.7,2.624Z" transform="translate(-159.211 6.875)"/><path class="d" d="M247.418,369.081h-9.385a1.666,1.666,0,0,1-1.762-1.762V352.648a1.666,1.666,0,0,1,1.762-1.762h9.212a4.5,4.5,0,0,1,5.018,4.98,5.746,5.746,0,0,1-.555,2.394,4.919,4.919,0,0,1-.67,1.092,4.71,4.71,0,0,1,1,1.341,6.589,6.589,0,0,1,.747,3.064,4.846,4.846,0,0,1-5.363,5.324Zm-7.661-3.371h7.355a6.741,6.741,0,0,0,1.379-.115,1.263,1.263,0,0,0,.555-.268.747.747,0,0,0,.23-.441,5.075,5.075,0,0,0,.115-1.187,2.7,2.7,0,0,0-.594-1.915,1.915,1.915,0,0,0-1.532-.632h-5.516a1.685,1.685,0,1,1,0-3.371h5.324a1.589,1.589,0,0,0,1.283-.5,2.088,2.088,0,0,0,.517-1.456,2.03,2.03,0,0,0-.287-1.322,2.66,2.66,0,0,0-1.571-.326h-7.259Z" transform="translate(-135.759 6.95)"/><path class="e" d="M276.972,369.293a1.628,1.628,0,0,1-1.7-1.7V361.5h-8.848a1.685,1.685,0,0,1,0-3.352h8.848V352.4a1.743,1.743,0,0,1,3.467,0v15.111a1.647,1.647,0,0,1-1.762,1.781Zm-14.307,0a1.628,1.628,0,0,1-1.7-1.7V352.477a1.628,1.628,0,0,1,1.7-1.685,1.609,1.609,0,0,1,1.7,1.685v15.111a1.647,1.647,0,0,1-1.7,1.7Z" transform="translate(-113.16 6.892)"/><path class="f" d="M303,369.256a1.724,1.724,0,0,1-1.609-1l-1.59-3.218h-6.78a1.628,1.628,0,0,1-1.456-.69,1.513,1.513,0,0,1-.172-1.149l-2.413,5.056a1.762,1.762,0,0,1-1.628,1,1.551,1.551,0,0,1-1.494-2.394l7.01-14.613a2.586,2.586,0,0,1,4.616,0l7.01,14.633a1.628,1.628,0,0,1,0,1.666,1.666,1.666,0,0,1-1.494.709Zm-7.833-13.924L291.8,362.38a1.647,1.647,0,0,1,1.36-.632h5.075Z" transform="translate(-90.603 6.928)"/><path class="g" d="M326.665,369.255a2.068,2.068,0,0,1-1.915-1.111l-3.218-5.9-3.218,5.918a2.049,2.049,0,0,1-1.915,1.092,1.915,1.915,0,0,1-1.915-1.3l-4.865-15.169a1.475,1.475,0,0,1,.172-1.4,1.551,1.551,0,0,1,1.321-.594,2.337,2.337,0,0,1,1.073.23,1.781,1.781,0,0,1,.843,1.149l3.735,11.8,2.777-5.114a2.108,2.108,0,0,1,.9-.9,2.587,2.587,0,0,1,1.053-.211,2.049,2.049,0,0,1,1.915,1.13l4.52,8.216a1.436,1.436,0,0,1,0,1.494A1.494,1.494,0,0,1,326.665,369.255Zm1.8-2.815a1.36,1.36,0,0,1-1.264-.881l-.153-.306a2.4,2.4,0,0,1-.268-.938,2.584,2.584,0,0,1,.1-1.015l3.5-11.185a1.743,1.743,0,0,1,.862-1.111,2.681,2.681,0,0,1,1.073-.211,1.475,1.475,0,0,1,1.283.594,1.513,1.513,0,0,1,.172,1.417l-4.022,12.583a1.341,1.341,0,0,1-1.283,1.13Z" transform="translate(-68.718 6.892)"/><path class="h" d="M339.406,369.293a1.628,1.628,0,0,1-1.7-1.7V352.477a1.609,1.609,0,0,1,1.7-1.685,1.628,1.628,0,0,1,1.7,1.685v5.65l11.817,8.37c.766.555,1.053,1.168.862,1.781s-.785.958-1.724.958h-.172a2.988,2.988,0,0,1-1.763-.575l-9.02-6.358v5.286a1.647,1.647,0,0,1-1.7,1.7Zm4.29-9.825a1.762,1.762,0,0,1-1.245-.5l-.1-.1a1.571,1.571,0,0,1-.46-1.13,1.59,1.59,0,0,1,.594-1.13l6.665-5.152a2.95,2.95,0,0,1,1.915-.594h.115a1.513,1.513,0,0,1,1.609.9c.326.938-.517,1.59-.785,1.82l-7.106,5.5a1.916,1.916,0,0,1-1.207.383Z" transform="translate(-42.924 6.892)"/><path class="i" d="M371.552,369.065H362.7a1.685,1.685,0,0,1,0-3.371h8.7a1.915,1.915,0,0,0,1.532-.555,2.2,2.2,0,0,0,.556-1.551,2.241,2.241,0,0,0-.575-1.532,1.781,1.781,0,0,0-1.513-.575h-5.746a4.9,4.9,0,0,1-2.029-.44,5.267,5.267,0,0,1-1.629-1.169,5.077,5.077,0,0,1-1.073-1.666,5.21,5.21,0,0,1-.4-2.049,5.1,5.1,0,0,1,.4-2.011,5.5,5.5,0,0,1,1.053-1.647,5.113,5.113,0,0,1,1.647-1.187,4.616,4.616,0,0,1,2.03-.441h8.274a1.685,1.685,0,0,1,0,3.352h-8.082a1.647,1.647,0,0,0-1.322.536,1.915,1.915,0,0,0-.536,1.4,2.087,2.087,0,0,0,.134.766,1.8,1.8,0,0,0,.364.613,1.493,1.493,0,0,0,.575.421,1.914,1.914,0,0,0,.785.153h5.631a5.209,5.209,0,0,1,2.126.44,5.325,5.325,0,0,1,1.686,1.13,4.9,4.9,0,0,1,1.168,1.762,5.63,5.63,0,0,1,.4,2.145,5.743,5.743,0,0,1-.4,2.145,5.305,5.305,0,0,1-1.149,1.743,5.744,5.744,0,0,1-1.7,1.149,5.208,5.208,0,0,1-2.049.44Z" transform="translate(-22.037 6.966)"/></g></g></svg>