<svg xmlns="http://www.w3.org/2000/svg" xmlns:xlink="http://www.w3.org/1999/xlink" viewBox="0 0 541.12 541.12">
  <defs>
    <linearGradient id="prefix__New_Gradient_Swatch" x1="183.79" y1="254.96" x2="370.15" y2="254.96"
      gradientUnits="userSpaceOnUse">
      <stop offset="0" stop-color="#ec1e2d" />
      <stop offset="1" stop-color="#703894" />
    </linearGradient>
    <linearGradient id="prefix__New_Gradient_Swatch-2" x1="184.76" y1="355.62" x2="194.04" y2="355.62"
      xlink:href="#prefix__New_Gradient_Swatch" />
    <linearGradient id="prefix__New_Gradient_Swatch-3" x1="210.62" y1="355.58" x2="219.62" y2="355.58"
      xlink:href="#prefix__New_Gradient_Swatch" />
    <linearGradient id="prefix__New_Gradient_Swatch-4" x1="236.27" y1="355.62" x2="244.92" y2="355.62"
      xlink:href="#prefix__New_Gradient_Swatch" />
    <linearGradient id="prefix__New_Gradient_Swatch-5" x1="260.96" y1="355.62" x2="270.24" y2="355.62"
      xlink:href="#prefix__New_Gradient_Swatch" />
    <linearGradient id="prefix__New_Gradient_Swatch-6" x1="285.62" y1="355.63" x2="295.59" y2="355.63"
      xlink:href="#prefix__New_Gradient_Swatch" />
    <linearGradient id="prefix__New_Gradient_Swatch-7" x1="309.56" y1="355.61" x2="322.23" y2="355.61"
      xlink:href="#prefix__New_Gradient_Swatch" />
    <linearGradient id="prefix__New_Gradient_Swatch-8" x1="337.7" y1="355.62" x2="346.16" y2="355.62"
      xlink:href="#prefix__New_Gradient_Swatch" />
    <linearGradient id="prefix__New_Gradient_Swatch-9" x1="360.56" y1="355.62" x2="369.09" y2="355.62"
      xlink:href="#prefix__New_Gradient_Swatch" />
    <style>
      @-webkit-keyframes rotatingLogo {
        0% {
          -webkit-transform: rotate(0deg);
          transform: rotate(0deg)
        }

        to {
          -webkit-transform: rotate(360deg);
          transform: rotate(360deg)
        }
      }

      @keyframes rotatingLogo {
        0% {
          -webkit-transform: rotate(0deg);
          transform: rotate(0deg)
        }

        to {
          -webkit-transform: rotate(360deg);
          transform: rotate(360deg)
        }
      }

      @font-face {
        font-family: Montserrat-Medium;
        src: url(../fonts/Montserrat-Medium.otf) format(opentype)
      }

      .prefix__cls-10,
      .prefix__cls-11,
      .prefix__cls-12 {
        opacity: .37;
        fill: #fff
      }

      .prefix__cls-10,
      .prefix__cls-11 {
        font-size: 29px;
        font-family: Montserrat-Medium
      }

      .prefix__cls-11 {
        font-size: 24.4px
      }
    </style>
  </defs>
  <g id="prefix__Layer_2" data-name="Layer 2">
    <g id="prefix__Layer_1-2" data-name="Layer 1">
      <g id="prefix__HeroLogo">
        <g id="prefix__LogoRounded">
          <path
            d="M369.82 344L335 309.76a1.1 1.1 0 00-1.87.81l.22 11.14-17.15-26.49a1.11 1.11 0 00-1.66-.21l-29.63 27.07c.51-7.21 1-14.49 1.34-21.67l22.07-13a1.08 1.08 0 00.54-.82 1.09 1.09 0 00-.33-.91l-21.34-20.44a1.1 1.1 0 00-1.85.77c-.25 11-.67 22.12-1.22 33.07l-11.61 6.81v-28.02L284 263.15a1.08 1.08 0 00.17-.38.13.13 0 000-.06.94.94 0 000-.25 1.15 1.15 0 00-.13-.48.21.21 0 010-.06v-.11l-.07-.07L259.32 235a1.07 1.07 0 00-.27-.23l-.15-.07-34.06-13.7-.84-15.64a1.09 1.09 0 00-1.94-.65l-7.63 9.37 1-19.15a1.11 1.11 0 00-.32-.83L202 180.74l-.14-.16-1.22-1.21-14.69-15a1.1 1.1 0 00-1.89.76v48.67a1.1 1.1 0 002.08.49l8.73-17.78 1.82 17.12a1.09 1.09 0 00.76.93 1.11 1.11 0 001.15-.32L213.07 198l-1 19-13.68 16.78-12.51-10a1.09 1.09 0 00-1.15-.13 1.11 1.11 0 00-.63 1v27a1.13 1.13 0 00.14.53l11.15 21-11 11.08a1.07 1.07 0 00-.33.78v22.23a1.09 1.09 0 00.58 1l11 5.92-11.53 11.51a1.07 1.07 0 00-.32.76v18.34a1.1 1.1 0 001.1 1.09h26.43A1.1 1.1 0 00212 344l-15.14-12.62L212 320.25l11.25 25a1.1 1.1 0 00.93.64h.07a1.12 1.12 0 00.93-.51l11.28-17.77 10.46 10.45a1.08 1.08 0 001.19.24 1.1 1.1 0 00.68-1v-25.66h11l.05 18.44-4.22 4.29a1.1 1.1 0 00-.22 1.24l4.58 9.65a1.11 1.11 0 001 .63h.25a1.08 1.08 0 00.85-1.07V331l9.47-9.63v23.43a1.11 1.11 0 00.62 1 1.09 1.09 0 001.15-.12l15.94-12.22v11.34a1.09 1.09 0 001.1 1.09h78.74a1.09 1.09 0 00.76-1.88zm-82.34-75.42L306 286.3l-19.58 11.49c.44-9.68.81-19.49 1.06-29.2zm-101.19-59.51v-41.26l6.24 6.38 1.94 18.21zm8.71-32.26l4.09 4.1.67.67-3.5 7.13zm3.62 34.1l-1.93-18.11 4.7-9.56 11.42 11.67zM335.1 336.85a1.08 1.08 0 00.7-1l-.13-6.44 6.82 10.54-16.28.44zm-82.25-102.22h-27.26l-.59-11.26zM222 208.29l.64 11.75-7.69-3.1zm-8.5 10.43l9.27 3.74.73 13.33a1.11 1.11 0 001.1 1h29.61l-18.42 10a1.09 1.09 0 00-.57 1v24.74h-11.68v-18.17a1.09 1.09 0 00-.41-.85l-23-18.4zm-27.16 8.17l10.7 8.55-10.7 13.13zm0 58.56l10.17-10.28 4.83 9.08-15 16.8zm17.29-1.56l-5.5-10.35 11.61-11.74v41h-22.1l15.79-17.69a1.09 1.09 0 00.15-1.22zm7.34 28.65h7.87l-5.91 4.34zM234 326v1.4l-9.59 15.09-10.6-23.56 9-6.6a1.14 1.14 0 00.44-.89v-27.2H234zm23.74 9.37l2.13-2.17v6.7zm32.57-5.24a1.07 1.07 0 00-.38.07h-.06a.65.65 0 00-.17.09l-15.94 12.22v-23.85a1.1 1.1 0 00-.68-1 1.08 1.08 0 00-1.19.25l-9.79 10-.1-17.37a1.09 1.09 0 00-1.1-1.09h-13.22a1.09 1.09 0 00-1.09 1.09v24.1l-9.23-9.23V282a1.09 1.09 0 00-1.1-1.09h-14.12a1.09 1.09 0 00-1.09 1.09v28.35h-11.83a1.1 1.1 0 00-.92.5 1.12 1.12 0 00-.08 1l2.85 6.31-16.62 12.18a1.12 1.12 0 00-.44.84 1.09 1.09 0 00.39.89l13.89 11.58H186v-16.73l12.28-12.29a1.1 1.1 0 00-.24-1.75l-11.74-6.3V305h26.24a1.11 1.11 0 001.1-1.1v-46.54a1.1 1.1 0 00-1.88-.77L197 271.51l-10.5-19.73 12.21-15 22.64 18.08v18.7a1.09 1.09 0 001.09 1.1h13.82a1.1 1.1 0 001.1-1.1V248.4l20.91-11.3 21.14 23L248 249.42a1.09 1.09 0 00-1.44 1V300a1.1 1.1 0 001.09 1.1h14.15a1.1 1.1 0 001.1-1.1v-24.58l15.9-9.18-8.25 10.58a1.09 1.09 0 00-.23.68v30.34a1.07 1.07 0 00.55 1 1.08 1.08 0 001.1 0l12-7.05c-.4 7.51-.89 15.22-1.45 22.93a1.12 1.12 0 00.61 1.07 1.13 1.13 0 001.23-.18l21.87-20 16.89 24.29zm-11.38-67.93l-18.58 10.68a1.7 1.7 0 00-.85 1.46v23.49h-10.72V252zm12.48 81.5v-10.55l17.77 10.55zm22.06 0l-19.21-11.41 31-.25a1.1 1.1 0 00.9-1.72l-18.25-26.24 7.2-6.57 18.34 28.36.18 9.22-14 5.51a1.1 1.1 0 00-.67 1.24 1.12 1.12 0 001.06.87l24.48-.66a1.1 1.1 0 00.93-.59 1.08 1.08 0 00-.05-1.1l-9.8-15.15-.23-12 31 30.49z"
            fill="url(#prefix__New_Gradient_Swatch)" />
          <path
            d="M193.12 360.45a.85.85 0 01-.89-.89v-3.18h-4.62a.88.88 0 110-1.75h4.62v-3a.91.91 0 011.81 0v7.89a.86.86 0 01-.92.93zm-7.47 0a.85.85 0 01-.89-.89v-7.89a.85.85 0 01.89-.88.85.85 0 01.89.88v7.89a.86.86 0 01-.89.89z"
            fill="url(#prefix__New_Gradient_Swatch-2)" />
          <path
            d="M218.24 360.37H212a1.25 1.25 0 01-1.35-1.36v-7.34a.9.9 0 011.8 0v6.94h5.39v-6.94a.91.91 0 011.81 0V359a1.27 1.27 0 01-1.41 1.37z"
            fill="url(#prefix__New_Gradient_Swatch-3)" />
          <path
            d="M242.09 360.37h-4.9a.87.87 0 01-.92-.92v-7.66a.87.87 0 01.92-.92H242a2.35 2.35 0 012.62 2.6 3 3 0 01-.29 1.25 2.57 2.57 0 01-.35.57 2.46 2.46 0 01.52.7 3.44 3.44 0 01.39 1.6 2.53 2.53 0 01-2.8 2.78zm-4-1.76h3.84a3.52 3.52 0 00.72-.06.66.66 0 00.29-.14.39.39 0 00.12-.23 2.65 2.65 0 00.06-.62 1.41 1.41 0 00-.31-1 1 1 0 00-.8-.33h-2.88a.88.88 0 010-1.76h2.78a.83.83 0 00.67-.26 1.09 1.09 0 00.27-.76 1.06 1.06 0 00-.15-.69s-.21-.17-.82-.17h-3.79z"
            fill="url(#prefix__New_Gradient_Swatch-4)" />
          <path
            d="M269.32 360.45a.85.85 0 01-.89-.89v-3.18h-4.62a.88.88 0 010-1.75h4.62v-3a.91.91 0 011.81 0v7.89a.86.86 0 01-.92.93zm-7.47 0a.85.85 0 01-.89-.89v-7.89a.85.85 0 01.89-.88.84.84 0 01.89.88v7.89a.86.86 0 01-.89.89z"
            fill="url(#prefix__New_Gradient_Swatch-5)" />
          <path
            d="M294.69 360.45a.9.9 0 01-.84-.52l-.83-1.68h-3.54a.85.85 0 01-.76-.36.79.79 0 01-.09-.6l-1.26 2.64a.92.92 0 01-.85.52.81.81 0 01-.78-1.25l3.66-7.63a1.35 1.35 0 012.41 0l3.66 7.64a.85.85 0 010 .87.87.87 0 01-.78.37zm-4.09-7.27l-1.76 3.68a.86.86 0 01.71-.33h2.65z"
            fill="url(#prefix__New_Gradient_Swatch-6)" />
          <path
            d="M318.47 360.43a1.08 1.08 0 01-1-.58l-1.68-3.08-1.68 3.09a1.07 1.07 0 01-1 .57 1 1 0 01-1-.68l-2.54-7.92a.77.77 0 01.09-.73.81.81 0 01.69-.31 1.22 1.22 0 01.56.12.93.93 0 01.44.6l1.95 6.16 1.45-2.67a1.1 1.1 0 01.47-.47 1.35 1.35 0 01.55-.11 1.07 1.07 0 011 .59l2.36 4.29a.75.75 0 010 .78.78.78 0 01-.66.35zm.94-1.47a.71.71 0 01-.66-.46l-.08-.16a1.25 1.25 0 01-.14-.49 1.35 1.35 0 01.05-.53l1.83-5.84a.91.91 0 01.45-.58 1.4 1.4 0 01.56-.11.77.77 0 01.67.31.79.79 0 01.09.74l-2.1 6.57a.7.7 0 01-.67.59z"
            fill="url(#prefix__New_Gradient_Swatch-7)" />
          <path
            d="M338.59 360.45a.85.85 0 01-.89-.89v-7.89a.84.84 0 01.89-.88.85.85 0 01.89.88v2.95l6.17 4.37c.4.29.55.61.45.93s-.41.5-.9.5h-.09a1.56 1.56 0 01-.92-.3l-4.71-3.32v2.76a.86.86 0 01-.89.89zm2.24-5.13a.92.92 0 01-.65-.26l-.05-.05a.82.82 0 01-.24-.59.83.83 0 01.31-.59l3.48-2.69a1.54 1.54 0 011-.31h.06a.79.79 0 01.84.47c.17.49-.27.83-.41.95l-3.71 2.87a1 1 0 01-.63.2z"
            fill="url(#prefix__New_Gradient_Swatch-8)" />
          <path
            d="M366.28 360.37h-4.62a.88.88 0 010-1.76h4.54a1 1 0 00.8-.29 1.15 1.15 0 00.29-.81 1.17 1.17 0 00-.3-.8.93.93 0 00-.79-.3h-3a2.56 2.56 0 01-1.06-.23 2.75 2.75 0 01-.85-.61 2.65 2.65 0 01-.56-.87 2.72 2.72 0 01-.21-1.07 2.66 2.66 0 01.21-1.05 2.87 2.87 0 01.55-.86 2.67 2.67 0 01.86-.62 2.41 2.41 0 011.06-.23h4.32a.88.88 0 010 1.75h-4.22a.86.86 0 00-.69.28 1 1 0 00-.28.73 1.09 1.09 0 00.07.4.94.94 0 00.19.32.78.78 0 00.3.22 1 1 0 00.41.08h2.94a2.72 2.72 0 011.11.23 2.78 2.78 0 01.88.59 2.56 2.56 0 01.61.92 2.94 2.94 0 01.21 1.12 3 3 0 01-.21 1.12 2.77 2.77 0 01-.6.91 3 3 0 01-.89.6 2.72 2.72 0 01-1.07.23z"
            fill="url(#prefix__New_Gradient_Swatch-9)" />
        </g>
        <g style="animation:rotatingLogo 10s infinite linear;transform-origin:50% 50%"><text class="prefix__cls-10"
            transform="rotate(-52.75 241.068 -43.68)">S</text><text class="prefix__cls-10"
            transform="matrix(.69 -.73 .73 .69 141.63 159.42)">T</text><text class="prefix__cls-10"
            transform="rotate(-41.4 271.32 -131.243)">I</text><text class="prefix__cls-10"
            transform="rotate(-36 295.195 -179.917)">R</text><text class="prefix__cls-10"
            transform="rotate(-30.7 320.472 -266.36)"></text><text class="prefix__cls-10"
            transform="rotate(-24.85 369.26 -367.312)">U</text><text class="prefix__cls-10"
            transform="rotate(-16.98 477.367 -650.772)">P</text><text class="prefix__cls-10"
            transform="rotate(-11.5 634.064 -1099.144)"></text><text class="prefix__cls-10"
            transform="matrix(.99 -.12 .12 .99 241.64 102.79)">Y</text><text class="prefix__cls-10"
            transform="rotate(.69 -8207.38 21689.48)">O</text><text class="prefix__cls-10"
            transform="rotate(9.17 -485.76 1836.221)">U</text><text class="prefix__cls-10"
            transform="matrix(.96 .29 -.29 .96 310.56 104.95)">R</text><text class="prefix__cls-10"
            transform="rotate(22.55 -114.85 888.84)"></text><text class="prefix__cls-10"
            transform="rotate(25.8 -82.573 793.38)">I</text><text class="prefix__cls-10"
            transform="rotate(32.9 -27.238 656.885)">M</text><text class="prefix__cls-10"
            transform="rotate(41.4 8.113 564.7)">A</text><text class="prefix__cls-10"
            transform="rotate(48.86 30.168 505.905)">G</text><text class="prefix__cls-10"
            transform="rotate(54.7 40.2 475.328)">I</text><text class="prefix__cls-10"
            transform="rotate(60.76 55.49 440.893)">N</text><text class="prefix__cls-10"
            transform="rotate(68.74 67.045 410.374)">A</text><text class="prefix__cls-10"
            transform="rotate(75.5 74.548 388.535)">T</text><text class="prefix__cls-10"
            transform="rotate(80.06 77.6 378.73)">I</text><text class="prefix__cls-10"
            transform="rotate(86.16 87.532 358.505)">O</text><text class="prefix__cls-10"
            transform="rotate(94.71 94.8 339.522)">N</text><text class="prefix__cls-10"
            transform="rotate(100.54 95.354 331.192)"></text><text class="prefix__cls-10"
            transform="rotate(103.76 97.722 324.971)"></text><text class="prefix__cls-10"
            transform="matrix(-.29 .96 -.96 -.29 434.31 316.54)"></text><text class="prefix__cls-10"
            transform="rotate(110.21 102.187 313.28)"></text><text class="prefix__cls-10"
            transform="matrix(-.4 .92 -.92 -.4 428.16 334.48)"></text><text class="prefix__cls-10"
            transform="matrix(-.45 .89 -.89 -.45 424.34 343.17)"></text><text class="prefix__cls-10"
            transform="matrix(-.5 .87 -.87 -.5 420.03 351.65)"></text><text class="prefix__cls-10"
            transform="rotate(125.32 114.77 287.372)">S</text><text class="prefix__cls-10"
            transform="rotate(130.83 116.327 280.321)">T</text><text class="prefix__cls-10"
            transform="rotate(135.71 116.922 274.49)">I</text><text class="prefix__cls-10"
            transform="matrix(-.78 .62 -.62 -.78 384.96 396.79)">R</text><text class="prefix__cls-10"
            transform="rotate(146.76 122.212 260.098)"></text><text class="prefix__cls-10"
            transform="rotate(152.5 128.793 251.97)">U</text><text class="prefix__cls-10"
            transform="rotate(160.38 131.866 242.761)">P</text><text class="prefix__cls-10"
            transform="rotate(165.72 130.915 236.982)"></text><text class="prefix__cls-10"
            transform="rotate(170.65 135.76 230.962)">Y</text><text class="prefix__cls-10"
            transform="rotate(178.05 140.44 222.484)">O</text><text class="prefix__cls-10"
            transform="matrix(-.99 -.11 .11 -.99 262.58 440.78)">U</text><text class="prefix__cls-10"
            transform="rotate(-165.57 146.87 203.836)">R</text><text class="prefix__cls-10"
            transform="rotate(-160.13 146.036 196.944)"></text><text class="prefix__cls-10"
            transform="rotate(-156.71 147.924 192.885)">I</text><text class="prefix__cls-10"
            transform="matrix(-.87 -.5 .5 -.87 197.82 424.85)">M</text><text class="prefix__cls-10"
            transform="rotate(-141.51 157.936 174.837)">A</text><text class="prefix__cls-10"
            transform="rotate(-133.82 162.227 164.974)">G</text><text class="prefix__cls-10"
            transform="matrix(-.62 -.79 .79 -.62 139.15 378.56)">I</text><text class="prefix__cls-10"
            transform="rotate(-121.92 169.113 148.482)">N</text><text class="prefix__cls-10"
            transform="rotate(-114.2 172.605 136.212)">A</text><text class="prefix__cls-10"
            transform="rotate(-107.43 176.407 124.054)">T</text><text class="prefix__cls-10"
            transform="matrix(-.22 -.98 .98 -.22 105.6 311.87)">I</text><text class="prefix__cls-10"
            transform="rotate(-96.49 186.208 104.907)">O</text><text class="prefix__cls-10"
            transform="rotate(-87.7 193.776 85.785)">N</text><text class="prefix__cls-10"
            transform="rotate(-82 195.269 66.981)"></text><text class="prefix__cls-11"
            transform="rotate(-79.12 197.67 58.42)"></text><text class="prefix__cls-11"
            transform="rotate(-77.01 200.023 52.238)"></text><text class="prefix__cls-11"
            transform="rotate(-74.9 202.5 45.778)"></text><text class="prefix__cls-11"
            transform="rotate(-72.8 205.073 39.016)"></text><text class="prefix__cls-11"
            transform="rotate(-70.69 207.788 31.87)"></text><text class="prefix__cls-11"
            transform="rotate(-68.3 211.374 23.78)"></text><text class="prefix__cls-11"
            transform="rotate(-66.47 213.683 16.42)"></text>
          <circle class="prefix__cls-12" cx="99.03" cy="208.06" r="4.5" />
          <circle class="prefix__cls-12" cx="442.03" cy="330.06" r="4.5" />
        </g>
      </g>
    </g>
  </g>
</svg>