<svg xmlns="http://www.w3.org/2000/svg" xmlns:xlink="http://www.w3.org/1999/xlink" viewBox="0 0 450.4 23.61">
  <defs>
    <style>
      .cls-1 {
        fill: url(#New_Gradient_Swatch);
      }

      .cls-2 {
        fill: url(#New_Gradient_Swatch-2);
      }

      .cls-3 {
        fill: url(#New_Gradient_Swatch-3);
      }

      .cls-4 {
        fill: url(#New_Gradient_Swatch-4);
      }

      .cls-5 {
        fill: url(#New_Gradient_Swatch-5);
      }

      .cls-6 {
        fill: url(#New_Gradient_Swatch-6);
      }

      .cls-7 {
        fill: url(#New_Gradient_Swatch-7);
      }

      .cls-8 {
        fill: url(#New_Gradient_Swatch-8);
      }
    </style>
    <linearGradient id="New_Gradient_Swatch" y1="11.81" x2="22.67" y2="11.81" gradientUnits="userSpaceOnUse">
      <stop offset="0" stop-color="#ec1e2d" />
      <stop offset="1" stop-color="#703894" />
    </linearGradient>
    <linearGradient id="New_Gradient_Swatch-2" x1="63.17" y1="11.71" x2="85.17" y2="11.71"
      xlink:href="#New_Gradient_Swatch" />
    <linearGradient id="New_Gradient_Swatch-3" x1="125.87" y1="11.81" x2="146.99" y2="11.81"
      xlink:href="#New_Gradient_Swatch" />
    <linearGradient id="New_Gradient_Swatch-4" x1="186.19" y1="11.81" x2="208.86" y2="11.81"
      xlink:href="#New_Gradient_Swatch" />
    <linearGradient id="New_Gradient_Swatch-5" x1="246.44" y1="11.85" x2="270.81" y2="11.85"
      xlink:href="#New_Gradient_Swatch" />
    <linearGradient id="New_Gradient_Swatch-6" x1="304.93" y1="11.79" x2="335.89" y2="11.79"
      xlink:href="#New_Gradient_Swatch" />
    <linearGradient id="New_Gradient_Swatch-7" x1="373.69" y1="11.81" x2="394.36" y2="11.81"
      xlink:href="#New_Gradient_Swatch" />
    <linearGradient id="New_Gradient_Swatch-8" x1="429.55" y1="11.81" x2="450.4" y2="11.81"
      xlink:href="#New_Gradient_Swatch" />
  </defs>
  <g id="Layer_2" data-name="Layer 2">
    <g id="Layer_1-2" data-name="Layer 1">
      <g id="Logo">
        <path class="cls-1"
          d="M20.42,23.61a2.07,2.07,0,0,1-2.17-2.16V13.66H7a2,2,0,0,1-2.13-2.13A2,2,0,0,1,7,9.4h11.3V2.17A2.1,2.1,0,0,1,20.5,0a2.07,2.07,0,0,1,2.17,2.17V21.45A2.09,2.09,0,0,1,20.42,23.61Zm-18.25,0A2.07,2.07,0,0,1,0,21.45V2.17A2.07,2.07,0,0,1,2.17,0h.08A2.08,2.08,0,0,1,4.42,2.17V21.45A2.09,2.09,0,0,1,2.17,23.61Z" />
        <path class="cls-2"
          d="M81.81,23.42H66.48a3.08,3.08,0,0,1-3.31-3.32V2.17a2.21,2.21,0,0,1,4.42,0v17H80.75v-17a2.21,2.21,0,0,1,4.42,0V20.1A3.1,3.1,0,0,1,81.81,23.42Z" />
        <path class="cls-3"
          d="M146,12.72A6.51,6.51,0,0,0,144.77,11a6.27,6.27,0,0,0,.85-1.37,7.36,7.36,0,0,0,.7-3.07c0-4.1-2.27-6.36-6.4-6.36H128.11a2.12,2.12,0,0,0-2.24,2.25V21.17a2.12,2.12,0,0,0,2.24,2.25h12c4.46,0,6.91-2.41,6.91-6.79A8.43,8.43,0,0,0,146,12.72Zm-3.62,5.36a1.08,1.08,0,0,1-.3.55,1.52,1.52,0,0,1-.71.34,8.18,8.18,0,0,1-1.76.16h-9.37V4.5h9.25c1.5,0,1.93.32,2,.39a2.64,2.64,0,0,1,.38,1.71,2.67,2.67,0,0,1-.65,1.84,2,2,0,0,1-1.65.65h-6.8a2,2,0,0,0-2.12,2.13,2.05,2.05,0,0,0,2.12,2.17h7a2.4,2.4,0,0,1,2,.8,3.43,3.43,0,0,1,.78,2.36A5.93,5.93,0,0,1,142.42,18.08Z" />
        <path class="cls-4"
          d="M206.61,23.61a2.07,2.07,0,0,1-2.16-2.16V13.66H193.14A2,2,0,0,1,191,11.53a2,2,0,0,1,2.13-2.13h11.31V2.17a2.21,2.21,0,0,1,4.41,0V21.45A2.09,2.09,0,0,1,206.61,23.61Zm-18.25,0a2.07,2.07,0,0,1-2.17-2.16V2.17A2.07,2.07,0,0,1,188.36,0h.08a2.07,2.07,0,0,1,2.17,2.17V21.45A2.09,2.09,0,0,1,188.36,23.61Z" />
        <path class="cls-5"
          d="M268.6,23.61a2.19,2.19,0,0,1-2.06-1.26l-2-4.11h-8.64a2,2,0,0,1-1.87-.89,1.94,1.94,0,0,1-.22-1.45l-3.07,6.43a2.22,2.22,0,0,1-2.07,1.28,2,2,0,0,1-1.91-3.06l8.93-18.64a3.17,3.17,0,0,1,3-1.83,3.13,3.13,0,0,1,2.93,1.81l8.94,18.67a2.11,2.11,0,0,1,0,2.13A2.13,2.13,0,0,1,268.6,23.61Zm-10-17.76-4.3,9A2.17,2.17,0,0,1,256,14h6.48Z" />
        <path class="cls-6"
          d="M326.71,23.57a2.64,2.64,0,0,1-2.4-1.42l-4.11-7.54-4.09,7.55a2.63,2.63,0,0,1-2.4,1.41h-.11a2.38,2.38,0,0,1-2.34-1.67l-6.2-19.34a1.9,1.9,0,0,1,.21-1.79A2,2,0,0,1,307,0a2.9,2.9,0,0,1,1.36.3,2.24,2.24,0,0,1,1.07,1.46l4.79,15.06,3.54-6.52a2.43,2.43,0,0,1,1.15-1.14,3.08,3.08,0,0,1,1.32-.27,2.63,2.63,0,0,1,2.44,1.42l5.76,10.49a1.79,1.79,0,0,1-1.68,2.77ZM329,20a1.73,1.73,0,0,1-1.61-1.14l-.21-.39a3.47,3.47,0,0,1-.34-1.19A3.18,3.18,0,0,1,327,16l4.46-14.25A2.15,2.15,0,0,1,332.55.29,3,3,0,0,1,333.9,0a2,2,0,0,1,1.66.77,2,2,0,0,1,.2,1.81l-5.13,16.06A1.7,1.7,0,0,1,329,20Z" />
        <path class="cls-7"
          d="M375.86,23.61a2.07,2.07,0,0,1-2.17-2.16V2.17A2.07,2.07,0,0,1,375.86,0h.08a2.08,2.08,0,0,1,2.17,2.17V9.38l15.08,10.67c1,.71,1.35,1.48,1.09,2.28s-1,1.21-2.18,1.21h-.24a3.8,3.8,0,0,1-2.24-.74l-11.51-8.1v6.75A2.09,2.09,0,0,1,375.86,23.61Zm5.49-12.52a2.2,2.2,0,0,1-1.59-.65l-.12-.12a1.93,1.93,0,0,1-.6-1.44,2,2,0,0,1,.77-1.44l0,0,8.5-6.56a3.66,3.66,0,0,1,2.36-.77h.16c1.35,0,1.86.63,2,1.16.42,1.18-.65,2-1,2.31l-9.07,7A2.34,2.34,0,0,1,381.35,11.09Z" />
        <path class="cls-8"
          d="M443.53,23.42H432.24a2,2,0,0,1-2.13-2.13,2,2,0,0,1,2.13-2.17h11.1a2.5,2.5,0,0,0,1.94-.71,2.75,2.75,0,0,0,.71-2,2.85,2.85,0,0,0-.72-1.95,2.31,2.31,0,0,0-1.93-.74h-7.23a6.17,6.17,0,0,1-2.61-.57,6.57,6.57,0,0,1-2.08-1.48A6.83,6.83,0,0,1,429.55,7a6.5,6.5,0,0,1,.51-2.56,7,7,0,0,1,1.35-2.12A6.59,6.59,0,0,1,433.5.76,6.28,6.28,0,0,1,436.11.2h10.55a2.05,2.05,0,0,1,2.12,2.17,2,2,0,0,1-2.12,2.12H436.34a2.11,2.11,0,0,0-1.69.69A2.44,2.44,0,0,0,434,7a3,3,0,0,0,.17,1,2.33,2.33,0,0,0,.46.78,2.25,2.25,0,0,0,1.74.73h7.19a6.67,6.67,0,0,1,2.71.56,7.06,7.06,0,0,1,2.15,1.44,6.63,6.63,0,0,1,1.5,2.24,7.42,7.42,0,0,1,.51,2.75,7.06,7.06,0,0,1-.52,2.73,6.72,6.72,0,0,1-1.47,2.22,7.15,7.15,0,0,1-2.17,1.48A6.61,6.61,0,0,1,443.53,23.42Z" />
      </g>
    </g>
  </g>
</svg>