<svg xmlns="http://www.w3.org/2000/svg" viewBox="0 0 55.2 55.2"><defs><style>.cls-1{opacity:0.91;}.cls-2{fill:#fff;}</style></defs><g id="Layer_2" data-name="Layer 2"><g id="Layer_1-2" data-name="Layer 1"><g class="cls-1"><path class="cls-2" d="M40,0H15.22A15.21,15.21,0,0,0,0,15.22V40A15.21,15.21,0,0,0,15.22,55.2H40A15.21,15.21,0,0,0,55.2,40V15.22A15.21,15.21,0,0,0,40,0ZM50.74,39.92A10.81,10.81,0,0,1,39.92,50.74H15.28A10.81,10.81,0,0,1,4.46,39.92V15.28A10.81,10.81,0,0,1,15.28,4.46H39.92A10.81,10.81,0,0,1,50.74,15.28Z"/><path class="cls-2" d="M27.6,13.05A14.55,14.55,0,1,0,42.15,27.6,14.56,14.56,0,0,0,27.6,13.05Zm0,24a9.49,9.49,0,1,1,9.49-9.49A9.49,9.49,0,0,1,27.6,37.09Z"/><path class="cls-2" d="M45.91,12.57a3.27,3.27,0,1,1-3.27-3.26A3.26,3.26,0,0,1,45.91,12.57Z"/></g></g></g></svg>