<svg xmlns="http://www.w3.org/2000/svg" viewBox="0 0 54.3 53.57"><defs><style>.cls-1{opacity:0.91;}.cls-2{fill:#fff;}</style></defs><g id="Layer_2" data-name="Layer 2"><g id="Layer_1-2" data-name="Layer 1"><g class="cls-1"><path class="cls-2" d="M54.3,33.23V53.57H42.51v-19c0-4.77-1.7-8-6-8a6.46,6.46,0,0,0-6.05,4.31,8.08,8.08,0,0,0-.39,2.87V53.57H18.31s.16-32.14,0-35.47H30.1v5s-.06.08-.08.12h.08v-.12a11.71,11.71,0,0,1,10.63-5.86c7.76,0,13.57,5.07,13.57,16ZM0,53.57H11.79V18.1H0ZM12.14,6.07A6.07,6.07,0,1,1,6.07,0,6.07,6.07,0,0,1,12.14,6.07Z"/></g></g></g></svg>