<svg xmlns="http://www.w3.org/2000/svg" xmlns:xlink="http://www.w3.org/1999/xlink" viewBox="0 0 1601.68 453.56"><defs><style>.cls-1,.cls-10,.cls-11,.cls-12,.cls-14,.cls-15,.cls-16,.cls-17,.cls-18,.cls-19,.cls-2,.cls-20,.cls-21,.cls-3,.cls-4,.cls-5,.cls-6,.cls-7,.cls-8,.cls-9{fill:none;stroke-miterlimit:10;stroke-width:4px;}.cls-1{stroke:url(#New_Gradient_Swatch);}.cls-2{stroke:url(#New_Gradient_Swatch-2);}.cls-3{stroke:url(#New_Gradient_Swatch-3);}.cls-4{stroke:url(#New_Gradient_Swatch-4);}.cls-5{stroke:url(#New_Gradient_Swatch-5);}.cls-6{stroke:url(#New_Gradient_Swatch-6);}.cls-7{stroke:url(#New_Gradient_Swatch-7);}.cls-8{stroke:url(#New_Gradient_Swatch-8);}.cls-9{stroke:url(#New_Gradient_Swatch-9);}.cls-10{stroke:url(#New_Gradient_Swatch-10);}.cls-11{stroke:url(#New_Gradient_Swatch-11);}.cls-12{stroke:url(#New_Gradient_Swatch-12);}.cls-13,.cls-22,.cls-27,.cls-29{fill:#fff;}.cls-14{stroke:url(#New_Gradient_Swatch-13);}.cls-15{stroke:url(#New_Gradient_Swatch-14);}.cls-16{stroke:url(#New_Gradient_Swatch-15);}.cls-17{stroke:url(#New_Gradient_Swatch-16);}.cls-18{stroke:url(#New_Gradient_Swatch-17);}.cls-19{stroke:url(#New_Gradient_Swatch-18);}.cls-20{stroke:url(#New_Gradient_Swatch-19);}.cls-21{stroke:url(#New_Gradient_Swatch-20);}.cls-22,.cls-27{font-size:69px;}.cls-22,.cls-27,.cls-29{font-family:Montserrat-Regular, Montserrat;}.cls-23{letter-spacing:-0.01em;}.cls-24{letter-spacing:-0.02em;}.cls-25{letter-spacing:-0.01em;}.cls-26{letter-spacing:-0.01em;}.cls-27{letter-spacing:-0.02em;}.cls-28{letter-spacing:0em;}.cls-29{font-size:15px;}.cls-30{letter-spacing:-0.01em;}.cls-31{letter-spacing:-0.03em;}.cls-32{letter-spacing:0em;}.cls-33{letter-spacing:-0.01em;}.cls-34{letter-spacing:0em;}.cls-35{letter-spacing:-0.02em;}.cls-36{letter-spacing:0em;}.cls-37{letter-spacing:-0.01em;}.cls-38{letter-spacing:-0.01em;}.cls-39{letter-spacing:0em;}.cls-40{letter-spacing:-0.01em;}.cls-41{letter-spacing:-0.01em;}.cls-42{letter-spacing:-0.03em;}.cls-43{letter-spacing:-0.01em;}.cls-44{letter-spacing:-0.01em;}.cls-45{letter-spacing:0em;}.cls-46{letter-spacing:-0.01em;}.cls-47{letter-spacing:0em;}.cls-48{letter-spacing:-0.03em;}.cls-49{letter-spacing:-0.02em;}.cls-50{letter-spacing:-0.02em;}.cls-51{letter-spacing:-0.01em;}.cls-52{letter-spacing:-0.01em;}</style><linearGradient id="New_Gradient_Swatch" y1="76.93" x2="153.85" y2="76.93" gradientUnits="userSpaceOnUse"><stop offset="0" stop-color="#ec1e2d"/><stop offset="1" stop-color="#703894"/></linearGradient><linearGradient id="New_Gradient_Swatch-2" x1="0.11" y1="226.49" x2="153.96" y2="226.49" xlink:href="#New_Gradient_Swatch"/><linearGradient id="New_Gradient_Swatch-3" y1="376.63" x2="153.85" y2="376.63" xlink:href="#New_Gradient_Swatch"/><linearGradient id="New_Gradient_Swatch-4" x1="149.85" y1="376.63" x2="303.71" y2="376.63" xlink:href="#New_Gradient_Swatch"/><linearGradient id="New_Gradient_Swatch-5" x1="299.71" y1="376.63" x2="453.56" y2="376.63" xlink:href="#New_Gradient_Swatch"/><linearGradient id="New_Gradient_Swatch-6" x1="449.56" y1="376.63" x2="603.41" y2="376.63" xlink:href="#New_Gradient_Swatch"/><linearGradient id="New_Gradient_Swatch-7" x1="149.96" y1="226.49" x2="303.82" y2="226.49" xlink:href="#New_Gradient_Swatch"/><linearGradient id="New_Gradient_Swatch-8" x1="299.82" y1="226.49" x2="453.67" y2="226.49" xlink:href="#New_Gradient_Swatch"/><linearGradient id="New_Gradient_Swatch-9" x1="449.67" y1="226.49" x2="603.52" y2="226.49" xlink:href="#New_Gradient_Swatch"/><linearGradient id="New_Gradient_Swatch-10" x1="599.41" y1="376.63" x2="753.27" y2="376.63" xlink:href="#New_Gradient_Swatch"/><linearGradient id="New_Gradient_Swatch-11" x1="599.52" y1="226.49" x2="753.38" y2="226.49" xlink:href="#New_Gradient_Swatch"/><linearGradient id="New_Gradient_Swatch-12" x1="749.27" y1="376.63" x2="903.12" y2="376.63" xlink:href="#New_Gradient_Swatch"/><linearGradient id="New_Gradient_Swatch-13" x1="1447.83" y1="76.93" x2="1601.68" y2="76.93" xlink:href="#New_Gradient_Swatch"/><linearGradient id="New_Gradient_Swatch-14" x1="1447.83" y1="227.63" x2="1601.68" y2="227.63" xlink:href="#New_Gradient_Swatch"/><linearGradient id="New_Gradient_Swatch-15" x1="1148.12" y1="376.63" x2="1301.97" y2="376.63" xlink:href="#New_Gradient_Swatch"/><linearGradient id="New_Gradient_Swatch-16" x1="998.27" y1="376.63" x2="1152.12" y2="376.63" xlink:href="#New_Gradient_Swatch"/><linearGradient id="New_Gradient_Swatch-17" x1="1297.97" y1="376.63" x2="1451.83" y2="376.63" xlink:href="#New_Gradient_Swatch"/><linearGradient id="New_Gradient_Swatch-18" x1="1148.12" y1="227.63" x2="1301.97" y2="227.63" xlink:href="#New_Gradient_Swatch"/><linearGradient id="New_Gradient_Swatch-19" x1="1297.97" y1="227.63" x2="1451.83" y2="227.63" xlink:href="#New_Gradient_Swatch"/><linearGradient id="New_Gradient_Swatch-20" x1="1447.83" y1="376.63" x2="1601.68" y2="376.63" xlink:href="#New_Gradient_Swatch"/></defs><g id="Layer_2" data-name="Layer 2"><g id="Layer_1-2" data-name="Layer 1"><g id="PeriodicTable"><rect class="cls-1" x="2" y="2" width="149.85" height="149.85"/><rect class="cls-2" x="2.11" y="151.56" width="149.85" height="149.85"/><rect class="cls-3" x="2" y="301.71" width="149.85" height="149.85"/><rect class="cls-4" x="151.85" y="301.71" width="149.85" height="149.85"/><rect class="cls-5" x="301.71" y="301.71" width="149.85" height="149.85"/><rect class="cls-6" x="451.56" y="301.71" width="149.85" height="149.85"/><rect class="cls-7" x="151.96" y="151.56" width="149.85" height="149.85"/><rect class="cls-8" x="301.82" y="151.56" width="149.85" height="149.85"/><rect class="cls-9" x="451.67" y="151.56" width="149.85" height="149.85"/><rect class="cls-10" x="601.41" y="301.71" width="149.85" height="149.85"/><rect class="cls-11" x="601.52" y="151.56" width="149.85" height="149.85"/><rect class="cls-12" x="751.27" y="301.71" width="149.85" height="149.85"/><path class="cls-13" d="M12.57,22.36v-.5c2-.13,2.11-.22,2.11-1.57V13.38c0-.92-.13-1-.92-1l-.88-.09v-.45a15.12,15.12,0,0,0,3.29-.88v9.36c0,1.37.11,1.44,2.13,1.57v.5Z"/><path class="cls-13" d="M21.57,22.61a1.07,1.07,0,0,1-1.1-1.15,1.09,1.09,0,0,1,1.1-1.15,1.12,1.12,0,0,1,1.14,1.15A1.1,1.1,0,0,1,21.57,22.61Z"/><path class="cls-13" d="M12.93,164.09l.84-1.14a3.17,3.17,0,0,1,2.32-1,2.46,2.46,0,0,1,2.72,2.39,2,2,0,0,1-.55,1.34,8,8,0,0,1-1.28,1,3,3,0,0,1,2.66,2.77c0,2.94-3.46,4.18-4.73,4.18A3,3,0,0,1,13,173a.84.84,0,0,1-.27-.6,1.08,1.08,0,0,1,.42-.68.33.33,0,0,1,.47,0,3.29,3.29,0,0,0,2.23.95c1.29,0,2.21-1,2.21-2.72a2.21,2.21,0,0,0-2.37-2.3,4.56,4.56,0,0,0-1.21.2l-.13-.54c1.61-.53,2.9-1.25,2.9-2.58A1.57,1.57,0,0,0,15.55,163a2.88,2.88,0,0,0-2.25,1.42Z"/><path class="cls-13" d="M22.57,173.61a1.07,1.07,0,0,1-1.1-1.15,1.09,1.09,0,0,1,1.1-1.15,1.12,1.12,0,0,1,1.14,1.15A1.1,1.1,0,0,1,22.57,173.61Z"/><path class="cls-13" d="M169.49,170.08v1.37c0,1.19.07,1.28,1.35,1.41v.5h-4.21v-.5c1.35-.13,1.44-.24,1.44-1.43v-1.35h-4.76v-.54c1.71-2.43,3.57-5.06,5.37-7.56h.81v7.24h1.76v.86Zm-1.42-6.21c-1.14,1.66-2.4,3.5-3.64,5.35h3.64Z"/><path class="cls-13" d="M173.57,173.61a1.07,1.07,0,0,1-1.1-1.15,1.09,1.09,0,0,1,1.1-1.15,1.12,1.12,0,0,1,1.14,1.15A1.1,1.1,0,0,1,173.57,173.61Z"/><path class="cls-13" d="M321.3,162.14l.11.15-.47,1.19H316.8c-.16,1-.4,2.39-.56,3.27a8.4,8.4,0,0,1,2.12-.52,3.15,3.15,0,0,1,3.39,3.06,3.82,3.82,0,0,1-1.55,3,5.53,5.53,0,0,1-3.19,1.26,2.69,2.69,0,0,1-1.87-.7c-.25-.24-.32-.38-.29-.62a1,1,0,0,1,.38-.61.39.39,0,0,1,.51,0,3.13,3.13,0,0,0,2.26,1c1.52,0,2.24-1.3,2.24-2.65,0-1.58-1-2.71-3-2.71a5.48,5.48,0,0,0-1.8.32l-.05-.07c.27-1.41.67-3.95.86-5.39Z"/><path class="cls-13" d="M324.57,173.61a1.07,1.07,0,0,1-1.1-1.15,1.09,1.09,0,0,1,1.1-1.15,1.12,1.12,0,0,1,1.14,1.15A1.1,1.1,0,0,1,324.57,173.61Z"/><path class="cls-13" d="M465.68,166.57a2.66,2.66,0,0,1,1.15-.3,3.2,3.2,0,0,1,3.23,3.33,3.8,3.8,0,0,1-3.71,4c-2.13,0-3.75-1.75-3.75-4.5a7.37,7.37,0,0,1,5-6.79,15.23,15.23,0,0,1,2-.47l.11.59a10.62,10.62,0,0,0-2,.62,5.71,5.71,0,0,0-3.3,4.16Zm.43.72a3.48,3.48,0,0,0-1.74.51,5.46,5.46,0,0,0-.11,1.22c0,2.25.84,3.91,2.37,3.91s1.84-1.48,1.84-2.68C468.47,168.75,467.75,167.29,466.11,167.29Z"/><path class="cls-13" d="M472.57,173.61a1.07,1.07,0,0,1-1.1-1.15,1.09,1.09,0,0,1,1.1-1.15,1.12,1.12,0,0,1,1.14,1.15A1.1,1.1,0,0,1,472.57,173.61Z"/><path class="cls-13" d="M622.22,162.38c-1.73,3.65-3.41,7.29-5.15,11l-1.3.12-.12-.19a101.29,101.29,0,0,0,5.27-9.85h-3.85c-1.17,0-1.24.16-1.73,1.35h-.56c.18-1,.25-1.91.34-2.69h7Z"/><path class="cls-13" d="M624.57,173.61a1.07,1.07,0,0,1-1.1-1.15,1.09,1.09,0,0,1,1.1-1.15,1.12,1.12,0,0,1,1.14,1.15A1.1,1.1,0,0,1,624.57,173.61Z"/><path class="cls-13" d="M14.21,324.36v-.5c2-.13,2.11-.22,2.11-1.57v-6.91c0-.92-.13-1-.92-1l-.89-.09v-.45a15.37,15.37,0,0,0,3.3-.88v9.36c0,1.37.11,1.44,2.12,1.57v.5Z"/><path class="cls-13" d="M22.94,324.36v-.5c2-.13,2.1-.22,2.1-1.57v-6.91c0-.92-.12-1-.91-1l-.89-.09v-.45a15.37,15.37,0,0,0,3.3-.88v9.36c0,1.37.11,1.44,2.12,1.57v.5Z"/><path class="cls-13" d="M31.94,324.61a1.07,1.07,0,0,1-1.1-1.15,1.09,1.09,0,0,1,1.1-1.15,1.11,1.11,0,0,1,1.13,1.15A1.09,1.09,0,0,1,31.94,324.61Z"/><path class="cls-13" d="M164.21,324.36v-.5c2-.13,2.11-.22,2.11-1.57v-6.91c0-.92-.13-1-.92-1l-.89-.09v-.45a15.37,15.37,0,0,0,3.3-.88v9.36c0,1.37.11,1.44,2.12,1.57v.5Z"/><path class="cls-13" d="M179.4,322c-.23.81-.54,1.73-.72,2.39h-6.79v-.43c1-1,2.07-2,3-3.06,1.13-1.33,2.21-2.77,2.21-4.34s-.79-2.36-2.11-2.36a3.13,3.13,0,0,0-2.48,1.67l-.41-.37,1-1.46a3.27,3.27,0,0,1,2.47-1.08,2.94,2.94,0,0,1,3.06,3.11c0,1.53-.56,2.61-2.27,4.36-.77.81-1.91,1.91-2.68,2.65h3.44c1,0,1.24-.09,1.85-1.23Z"/><path class="cls-13" d="M181.94,324.61a1.07,1.07,0,0,1-1.1-1.15,1.09,1.09,0,0,1,1.1-1.15,1.11,1.11,0,0,1,1.13,1.15A1.09,1.09,0,0,1,181.94,324.61Z"/><path class="cls-13" d="M315.21,324.36v-.5c2-.13,2.11-.22,2.11-1.57v-6.91c0-.92-.13-1-.92-1l-.89-.09v-.45a15.37,15.37,0,0,0,3.3-.88v9.36c0,1.37.11,1.44,2.12,1.57v.5Z"/><path class="cls-13" d="M323.29,315.09l.85-1.14a3.17,3.17,0,0,1,2.32-1,2.46,2.46,0,0,1,2.72,2.39,2,2,0,0,1-.56,1.34,8,8,0,0,1-1.28,1A3,3,0,0,1,330,320.4c0,2.94-3.46,4.18-4.74,4.18a2.89,2.89,0,0,1-1.87-.63.8.8,0,0,1-.27-.6,1.07,1.07,0,0,1,.41-.68.33.33,0,0,1,.47,0,3.33,3.33,0,0,0,2.23.95c1.3,0,2.22-1,2.22-2.72a2.21,2.21,0,0,0-2.38-2.3,4.63,4.63,0,0,0-1.21.2l-.12-.54c1.6-.53,2.9-1.25,2.9-2.58a1.58,1.58,0,0,0-1.73-1.67,2.87,2.87,0,0,0-2.25,1.42Z"/><path class="cls-13" d="M332.94,324.61a1.07,1.07,0,0,1-1.1-1.15,1.09,1.09,0,0,1,1.1-1.15,1.11,1.11,0,0,1,1.13,1.15A1.09,1.09,0,0,1,332.94,324.61Z"/><path class="cls-13" d="M463.21,324.36v-.5c2-.13,2.11-.22,2.11-1.57v-6.91c0-.92-.13-1-.92-1l-.89-.09v-.45a15.37,15.37,0,0,0,3.3-.88v9.36c0,1.37.11,1.44,2.12,1.57v.5Z"/><path class="cls-13" d="M476.85,321.08v1.37c0,1.19.08,1.28,1.35,1.41v.5H474v-.5c1.35-.13,1.44-.24,1.44-1.43v-1.35h-4.75v-.54c1.71-2.43,3.56-5.06,5.36-7.56h.81v7.24h1.77v.86Zm-1.42-6.21c-1.13,1.66-2.39,3.5-3.64,5.35h3.64Z"/><path class="cls-13" d="M480.94,324.61a1.07,1.07,0,0,1-1.1-1.15,1.09,1.09,0,0,1,1.1-1.15,1.11,1.11,0,0,1,1.13,1.15A1.09,1.09,0,0,1,480.94,324.61Z"/><path class="cls-13" d="M614.21,324.36v-.5c2-.13,2.11-.22,2.11-1.57v-6.91c0-.92-.13-1-.92-1l-.89-.09v-.45a15.37,15.37,0,0,0,3.3-.88v9.36c0,1.37.11,1.44,2.12,1.57v.5Z"/><path class="cls-13" d="M628.66,313.14l.11.15-.47,1.19h-4.14c-.16,1-.39,2.39-.56,3.27a8.57,8.57,0,0,1,2.13-.52,3.14,3.14,0,0,1,3.38,3.06,3.84,3.84,0,0,1-1.54,3,5.58,5.58,0,0,1-3.19,1.26,2.67,2.67,0,0,1-1.87-.7c-.26-.24-.33-.38-.29-.62a.91.91,0,0,1,.38-.61.38.38,0,0,1,.5,0,3.14,3.14,0,0,0,2.27,1c1.51,0,2.23-1.3,2.23-2.65,0-1.58-1-2.71-3-2.71a5.43,5.43,0,0,0-1.8.32l-.06-.07c.27-1.41.67-3.95.87-5.39Z"/><path class="cls-13" d="M631.94,324.61a1.07,1.07,0,0,1-1.1-1.15,1.09,1.09,0,0,1,1.1-1.15,1.11,1.11,0,0,1,1.13,1.15A1.09,1.09,0,0,1,631.94,324.61Z"/><path class="cls-13" d="M763.21,324.36v-.5c2-.13,2.11-.22,2.11-1.57v-6.91c0-.92-.13-1-.92-1l-.89-.09v-.45a15.37,15.37,0,0,0,3.3-.88v9.36c0,1.37.11,1.44,2.12,1.57v.5Z"/><path class="cls-13" d="M774,317.57a2.7,2.7,0,0,1,1.16-.3,3.19,3.19,0,0,1,3.22,3.33,3.8,3.8,0,0,1-3.71,4c-2.12,0-3.74-1.75-3.74-4.5a7.36,7.36,0,0,1,5-6.79,15.05,15.05,0,0,1,2-.47l.11.59a10.48,10.48,0,0,0-2,.62,5.68,5.68,0,0,0-3.29,4.16Zm.44.72a3.52,3.52,0,0,0-1.75.51,6.13,6.13,0,0,0-.11,1.22c0,2.25.85,3.91,2.38,3.91s1.84-1.48,1.84-2.68C776.84,319.75,776.12,318.29,774.48,318.29Z"/><path class="cls-13" d="M780.94,324.61a1.07,1.07,0,0,1-1.1-1.15,1.09,1.09,0,0,1,1.1-1.15,1.11,1.11,0,0,1,1.13,1.15A1.09,1.09,0,0,1,780.94,324.61Z"/><rect class="cls-14" x="1449.83" y="2" width="149.85" height="149.85"/><rect class="cls-15" x="1449.83" y="152.71" width="149.85" height="149.85"/><rect class="cls-16" x="1150.12" y="301.71" width="149.85" height="149.85"/><rect class="cls-17" x="1000.27" y="301.71" width="149.85" height="149.85"/><rect class="cls-18" x="1299.97" y="301.71" width="149.85" height="149.85"/><rect class="cls-19" x="1150.12" y="152.71" width="149.85" height="149.85"/><rect class="cls-20" x="1299.97" y="152.71" width="149.85" height="149.85"/><rect class="cls-21" x="1449.83" y="301.71" width="149.85" height="149.85"/><path class="cls-13" d="M1466.45,162.93a2.75,2.75,0,0,1,2.94,2.66,2.21,2.21,0,0,1-.5,1.46,16.13,16.13,0,0,1-1.5,1.15c1.24.69,2.47,1.55,2.47,3.12a3.43,3.43,0,0,1-3.62,3.26c-2,0-3.48-1.16-3.48-3a2.16,2.16,0,0,1,.83-1.79,16.46,16.46,0,0,1,1.62-1.11,3.33,3.33,0,0,1-2-2.83A3,3,0,0,1,1466.45,162.93Zm0,11a1.87,1.87,0,0,0,2-2.1c0-1.44-1.21-2.14-2.66-2.85a2.76,2.76,0,0,0-1.52,2.47A2.23,2.23,0,0,0,1466.45,174Zm-.23-10.44a1.66,1.66,0,0,0-1.64,1.86c0,1.31.88,1.8,2.29,2.54a2.63,2.63,0,0,0,1.19-2.24C1468.06,164.17,1467.16,163.52,1466.22,163.52Z"/><path class="cls-13" d="M1472.57,174.61a1.07,1.07,0,0,1-1.09-1.15,1.09,1.09,0,0,1,1.09-1.15,1.12,1.12,0,0,1,1.14,1.15A1.1,1.1,0,0,1,1472.57,174.61Z"/><path class="cls-13" d="M1316.16,169.14l-1.2.61a2.32,2.32,0,0,1-1.08.27,3.2,3.2,0,0,1-3.24-3.36,3.71,3.71,0,0,1,3.69-3.73c2.32,0,3.62,2,3.62,4.5a7.16,7.16,0,0,1-4.56,6.73,8.1,8.1,0,0,1-2.14.47l-.14-.52A6.09,6.09,0,0,0,1316.16,169.14Zm-2.05-5.58c-1.4,0-1.89,1.33-1.89,2.59,0,1.59.88,2.9,2.4,2.9a2.77,2.77,0,0,0,1.62-.52,9.88,9.88,0,0,0,.07-1.17C1316.31,165.76,1315.86,163.56,1314.11,163.56Z"/><path class="cls-13" d="M1320.57,174.61a1.06,1.06,0,0,1-1.09-1.15,1.08,1.08,0,0,1,1.09-1.15,1.12,1.12,0,0,1,1.14,1.15A1.1,1.1,0,0,1,1320.57,174.61Z"/><path class="cls-13" d="M1160.21,174.36v-.5c2-.13,2.11-.22,2.11-1.57v-6.91c0-.92-.13-1-.92-1l-.89-.09v-.45a15.37,15.37,0,0,0,3.3-.88v9.36c0,1.37.11,1.44,2.12,1.57v.5Z"/><path class="cls-13" d="M1171.69,162.93c2.7,0,3.71,3,3.71,5.81,0,2.63-1,5.84-3.71,5.84s-3.76-3-3.76-5.82C1167.93,166.13,1169,162.93,1171.69,162.93Zm0,.63c-1.67,0-2.09,2.65-2.09,5.17s.51,5.22,2.09,5.22,2.06-2.69,2.06-5.21S1173.3,163.56,1171.69,163.56Z"/><path class="cls-13" d="M1177.94,174.61a1.07,1.07,0,0,1-1.1-1.15,1.09,1.09,0,0,1,1.1-1.15,1.11,1.11,0,0,1,1.13,1.15A1.09,1.09,0,0,1,1177.94,174.61Z"/><path class="cls-13" d="M1011.21,324.36v-.5c2-.13,2.11-.22,2.11-1.57v-6.91c0-.92-.13-1-.92-1l-.89-.09v-.45a15.37,15.37,0,0,0,3.3-.88v9.36c0,1.37.11,1.44,2.12,1.57v.5Z"/><path class="cls-13" d="M1026.58,313.38c-1.73,3.65-3.4,7.29-5.15,11l-1.29.12-.13-.19a103.63,103.63,0,0,0,5.28-9.85h-3.86c-1.17,0-1.24.16-1.73,1.35h-.55c.18-1,.25-1.91.34-2.69h7Z"/><path class="cls-13" d="M1028.94,324.61a1.07,1.07,0,0,1-1.1-1.15,1.09,1.09,0,0,1,1.1-1.15,1.11,1.11,0,0,1,1.13,1.15A1.09,1.09,0,0,1,1028.94,324.61Z"/><path class="cls-13" d="M1161.21,324.36v-.5c2-.13,2.11-.22,2.11-1.57v-6.91c0-.92-.13-1-.92-1l-.89-.09v-.45a15.37,15.37,0,0,0,3.3-.88v9.36c0,1.37.11,1.44,2.12,1.57v.5Z"/><path class="cls-13" d="M1172.82,312.93a2.74,2.74,0,0,1,2.93,2.66,2.21,2.21,0,0,1-.5,1.46,14.18,14.18,0,0,1-1.49,1.15c1.24.69,2.46,1.55,2.46,3.12a3.43,3.43,0,0,1-3.62,3.26c-2,0-3.47-1.16-3.47-3a2.14,2.14,0,0,1,.83-1.79,15.32,15.32,0,0,1,1.62-1.11,3.33,3.33,0,0,1-2-2.83A3,3,0,0,1,1172.82,312.93Zm0,11a1.86,1.86,0,0,0,1.94-2.1c0-1.44-1.2-2.14-2.66-2.85a2.77,2.77,0,0,0-1.51,2.47A2.22,2.22,0,0,0,1172.82,324Zm-.24-10.44a1.66,1.66,0,0,0-1.63,1.86c0,1.31.88,1.8,2.28,2.54a2.61,2.61,0,0,0,1.19-2.24C1174.42,314.17,1173.52,313.52,1172.58,313.52Z"/><path class="cls-13" d="M1178.94,324.61a1.07,1.07,0,0,1-1.1-1.15,1.09,1.09,0,0,1,1.1-1.15,1.11,1.11,0,0,1,1.13,1.15A1.09,1.09,0,0,1,1178.94,324.61Z"/><path class="cls-13" d="M1310.21,324.36v-.5c2-.13,2.11-.22,2.11-1.57v-6.91c0-.92-.13-1-.92-1l-.89-.09v-.45a15.37,15.37,0,0,0,3.3-.88v9.36c0,1.37.11,1.44,2.12,1.57v.5Z"/><path class="cls-13" d="M1323.53,319.14l-1.21.61a2.3,2.3,0,0,1-1.08.27,3.2,3.2,0,0,1-3.24-3.36,3.71,3.71,0,0,1,3.69-3.73c2.33,0,3.62,2.05,3.62,4.5a7.16,7.16,0,0,1-4.55,6.73,8.16,8.16,0,0,1-2.15.47l-.14-.52A6.09,6.09,0,0,0,1323.53,319.14Zm-2-5.58c-1.41,0-1.89,1.33-1.89,2.59,0,1.59.88,2.9,2.39,2.9a2.74,2.74,0,0,0,1.62-.52,9.88,9.88,0,0,0,.07-1.17C1323.67,315.76,1323.22,313.56,1321.48,313.56Z"/><path class="cls-13" d="M1327.94,324.61a1.07,1.07,0,0,1-1.1-1.15,1.09,1.09,0,0,1,1.1-1.15,1.11,1.11,0,0,1,1.13,1.15A1.09,1.09,0,0,1,1327.94,324.61Z"/><path class="cls-13" d="M1467.67,322c-.23.81-.54,1.73-.72,2.39h-6.79v-.43c1-1,2.08-2,3-3.06,1.13-1.33,2.21-2.77,2.21-4.34s-.79-2.36-2.1-2.36a3.13,3.13,0,0,0-2.49,1.67l-.41-.37,1-1.46a3.28,3.28,0,0,1,2.47-1.08,2.94,2.94,0,0,1,3.06,3.11c0,1.53-.56,2.61-2.27,4.36-.77.81-1.91,1.91-2.68,2.65h3.44c1,0,1.24-.09,1.85-1.23Z"/><path class="cls-13" d="M1472.69,312.93c2.7,0,3.71,3,3.71,5.81,0,2.63-1,5.84-3.71,5.84s-3.76-3-3.76-5.82C1468.93,316.13,1470,312.93,1472.69,312.93Zm0,.63c-1.67,0-2.09,2.65-2.09,5.17s.51,5.22,2.09,5.22,2.06-2.69,2.06-5.21S1474.3,313.56,1472.69,313.56Z"/><path class="cls-13" d="M1478.94,324.61a1.07,1.07,0,0,1-1.1-1.15,1.09,1.09,0,0,1,1.1-1.15,1.11,1.11,0,0,1,1.13,1.15A1.09,1.09,0,0,1,1478.94,324.61Z"/><path class="cls-13" d="M1468,20c-.24.81-.54,1.73-.72,2.39h-6.79v-.43c1-1,2.07-2,3-3.06,1.14-1.33,2.22-2.77,2.22-4.34s-.8-2.36-2.11-2.36a3.11,3.11,0,0,0-2.48,1.67l-.42-.37,1-1.46a3.26,3.26,0,0,1,2.46-1.08,2.94,2.94,0,0,1,3.07,3.11c0,1.53-.56,2.61-2.27,4.36-.78.81-1.91,1.91-2.69,2.65h3.44c1,0,1.25-.09,1.86-1.23Z"/><path class="cls-13" d="M1470.57,22.61a1.07,1.07,0,0,1-1.09-1.15,1.09,1.09,0,0,1,1.09-1.15,1.12,1.12,0,0,1,1.14,1.15A1.1,1.1,0,0,1,1470.57,22.61Z"/><text class="cls-22" transform="translate(22.5 88.42)"><tspan class="cls-23">S</tspan><tspan x="41.74" y="0">T</tspan></text><text class="cls-22" transform="translate(1466.01 80.42)">SM</text><text class="cls-22" transform="translate(464.91 240.32)">UD</text><text class="cls-22" transform="translate(612.42 240.32)"><tspan class="cls-24">W</tspan><tspan x="75.62" y="0">D</tspan></text><text class="cls-22" transform="translate(1471.99 240.32)">IL</text><text class="cls-22" transform="translate(21.36 389.32)"><tspan class="cls-25">P</tspan><tspan x="48.85" y="0">R</tspan></text><text class="cls-22" transform="translate(172.64 389.32)"><tspan class="cls-26">C</tspan><tspan x="48.58" y="0">C</tspan></text><text class="cls-22" transform="translate(317.18 389.32)">SW</text><text class="cls-22" transform="translate(465.22 389.32)">BD</text><text class="cls-22" transform="translate(767.36 389.32)"><tspan class="cls-25">P</tspan><tspan x="48.85" y="0">R</tspan></text><text class="cls-22" transform="translate(1006.29 389.32)">DM</text><text class="cls-22" transform="translate(1313.5 389.32)">AD</text><text class="cls-22" transform="translate(1466.57 389.32)">GD</text><text class="cls-22" transform="translate(1312.95 240.32)">AN</text><text class="cls-22" transform="translate(1165.64 240.32)">BE</text><text class="cls-22" transform="translate(17.77 240.32)">BR</text><text class="cls-27" transform="translate(171.43 240.32)">P<tspan class="cls-28" x="48.44" y="0">V</tspan></text><text class="cls-22" transform="translate(317.5 240.32)">AD</text><text class="cls-29" transform="translate(23.2 112.5)"><tspan class="cls-30">S</tspan><tspan x="9.07" y="0">TR</tspan><tspan class="cls-31" x="28.53" y="0">A</tspan><tspan x="38.76" y="0">T</tspan><tspan class="cls-32" x="47.37" y="0">E</tspan><tspan x="57.34" y="0">GISING</tspan></text><text class="cls-29" transform="translate(24.7 265.5)">BRANDING</text><text class="cls-29" transform="translate(177.7 264.5)"><tspan class="cls-33">P</tspan><tspan x="10.62" y="0">I</tspan><tspan class="cls-33" x="15.15" y="0">T</tspan><tspan class="cls-34" x="23.61" y="0">CH </tspan><tspan class="cls-35" x="50.52" y="0">V</tspan><tspan x="60.76" y="0">ID</tspan><tspan class="cls-36" x="77.68" y="0">E</tspan><tspan x="87.66" y="0">OS</tspan></text><text class="cls-29" transform="translate(317.7 265.5)">A<tspan class="cls-33" x="10.75" y="0">R</tspan><tspan x="21.45" y="0">T DIR</tspan><tspan class="cls-36" x="61.75" y="0">E</tspan><tspan class="cls-37" x="71.73" y="0">C</tspan><tspan class="cls-34" x="82.38" y="0">TION</tspan></text><text class="cls-29" transform="translate(474.7 266.5)">UI/<tspan class="cls-33" x="21.43" y="0">U</tspan><tspan x="33.16" y="0">X </tspan><tspan x="0" y="18">DESIGNING</tspan></text><text class="cls-29" transform="translate(617.7 267.5)"><tspan class="cls-35">W</tspan><tspan x="16.44" y="0">EBSITE</tspan><tspan x="0" y="18">D</tspan><tspan class="cls-38" x="12.39" y="18">E</tspan><tspan class="cls-35" x="22.27" y="18">V</tspan><tspan class="cls-39" x="32.52" y="18">E</tspan><tspan class="cls-40" x="42.55" y="18">L</tspan><tspan x="51.18" y="18">O</tspan><tspan class="cls-30" x="63.76" y="18">P</tspan><tspan x="74.38" y="18">MENT</tspan></text><text class="cls-29" transform="translate(1467.7 107.5)">SOCIA<tspan class="cls-41" x="47.88" y="0">L</tspan><tspan class="cls-34" x="56.52" y="0">-MEDIA</tspan><tspan x="0" y="18">MAN</tspan><tspan class="cls-33" x="37.27" y="18">A</tspan><tspan class="cls-39" x="47.88" y="18">GEMENT</tspan></text><text class="cls-29" transform="translate(1169.7 264.5)">BOOK<tspan x="0" y="18">EDITING</tspan></text><text class="cls-29" transform="translate(1312.7 268.5)">ANIM<tspan class="cls-42" x="41.8" y="0">A</tspan><tspan x="52.03" y="0">TION</tspan></text><text class="cls-29" transform="translate(1472.7 269.5)">IL<tspan class="cls-41" x="13.36" y="0">L</tspan><tspan x="22" y="0">U</tspan><tspan class="cls-33" x="33.88" y="0">S</tspan><tspan x="42.96" y="0">TR</tspan><tspan class="cls-42" x="62.41" y="0">A</tspan><tspan x="72.64" y="0">TION</tspan></text><text class="cls-29" transform="translate(1015.7 415.5)">DIGI<tspan class="cls-31" x="33.04" y="0">T</tspan><tspan x="41.13" y="0">AL </tspan><tspan x="0" y="18">MARKETING</tspan></text><text class="cls-22" transform="translate(625.4 388.32)"><tspan class="cls-26">V</tspan><tspan x="47.13" y="0">P</tspan></text><text class="cls-29" transform="translate(630.7 413.5)"><tspan class="cls-35">V</tspan><tspan x="10.25" y="0">ID</tspan><tspan class="cls-32" x="27.16" y="0">E</tspan><tspan class="cls-34" x="37.14" y="0">O</tspan><tspan class="cls-33" x="0" y="18">P</tspan><tspan x="10.62" y="18">RODU</tspan><tspan class="cls-43" x="58.32" y="18">C</tspan><tspan x="68.97" y="18">TION</tspan></text><text class="cls-29" transform="translate(1314.7 417.5)">ADS <tspan x="0" y="18">MAN</tspan><tspan class="cls-33" x="37.27" y="18">A</tspan><tspan class="cls-39" x="47.88" y="18">GEMENT</tspan></text><text class="cls-29" transform="translate(1466.7 418.5)">GRA<tspan class="cls-30" x="33.19" y="0">P</tspan><tspan x="43.81" y="0">HIC</tspan><tspan x="0" y="18">DESIGNING</tspan></text><text class="cls-29" transform="translate(26.7 414.5)"><tspan class="cls-44">P</tspan><tspan x="10.69" y="0">UBLIC</tspan><tspan x="0" y="18">RE</tspan><tspan class="cls-45" x="20.88" y="18">L</tspan><tspan class="cls-31" x="29.74" y="18">A</tspan><tspan x="39.97" y="18">TIONS</tspan></text><text class="cls-29" transform="translate(177.7 416.5)"><tspan class="cls-46">C<tspan class="cls-34" x="10.56" y="0">ONTENT</tspan></tspan><tspan class="cls-47" x="0" y="18">C</tspan><tspan x="10.75" y="18">UR</tspan><tspan class="cls-42" x="33.48" y="18">A</tspan><tspan x="43.71" y="18">TION</tspan></text><text class="cls-29" transform="translate(320.7 413.5)">SCRI<tspan class="cls-48" x="35.38" y="0">P</tspan><tspan x="45.66" y="0">T</tspan><tspan class="cls-35" x="0" y="18">W</tspan><tspan x="16.44" y="18">RITING</tspan></text><text class="cls-29" transform="translate(469.7 417.5)">BOOK <tspan class="cls-49" x="51.07" y="0">C</tspan><tspan class="cls-50" x="61.63" y="0">O</tspan><tspan class="cls-46" x="73.9" y="0">V</tspan><tspan x="84.15" y="0">ER</tspan><tspan x="0" y="18">DESIGNING</tspan></text><text class="cls-22" transform="translate(1171.43 387.32)">CD</text><text class="cls-29" transform="translate(1176.7 416.5)">CRE<tspan class="cls-31" x="31.66" y="0">A</tspan><tspan x="41.89" y="0">T</tspan><tspan class="cls-51" x="50.5" y="0">I</tspan><tspan class="cls-35" x="54.91" y="0">V</tspan><tspan x="65.16" y="0">E</tspan><tspan x="0" y="18">DIR</tspan><tspan class="cls-36" x="27.76" y="18">E</tspan><tspan class="cls-52" x="37.74" y="18">C</tspan><tspan x="48.39" y="18">TION</tspan></text><text class="cls-29" transform="translate(772.7 416.5)"><tspan class="cls-33">P</tspan><tspan x="10.62" y="0">ROOF-</tspan><tspan x="0" y="18">READING</tspan></text></g></g></g></svg>