<svg xmlns="http://www.w3.org/2000/svg" viewBox="0 0 55.9 45.43"><defs><style>.cls-1{opacity:0.91;}.cls-2{fill:#fff;}</style></defs><g id="Layer_2" data-name="Layer 2"><g id="Layer_1-2" data-name="Layer 1"><g class="cls-1"><path class="cls-2" d="M55.9,5.38a22.81,22.81,0,0,1-6.59,1.8,11.49,11.49,0,0,0,5-6.34,22.91,22.91,0,0,1-7.28,2.78,11.47,11.47,0,0,0-19.84,7.85,11.23,11.23,0,0,0,.3,2.61A32.57,32.57,0,0,1,3.89,2.1,11.49,11.49,0,0,0,7.44,17.41,11.38,11.38,0,0,1,2.25,16a.76.76,0,0,0,0,.15,11.47,11.47,0,0,0,9.2,11.24,11.12,11.12,0,0,1-3,.41,11.8,11.8,0,0,1-2.16-.21,11.48,11.48,0,0,0,10.72,8A23,23,0,0,1,2.73,40.43,22.48,22.48,0,0,1,0,40.27a32.39,32.39,0,0,0,17.58,5.16C38.67,45.43,50.21,28,50.21,12.8c0-.5,0-1,0-1.49A23.08,23.08,0,0,0,55.9,5.38Z"/></g></g></g></svg>